<svg id="Layer_1" data-name="Layer 1" xmlns="http://www.w3.org/2000/svg" viewBox="0 0 429.25 216.8"><defs><style>.cls-1{fill:#e31b3f;}</style></defs><path class="cls-1" d="M171.31,264.79a48.72,48.72,0,0,1,9.74,16,59.6,59.6,0,0,1,3.15,20.29q0,27.54-20.37,45.41T113.3,364.4a93.37,93.37,0,0,1-27.83-4.32,107,107,0,0,1-24-10.48l-6.3,10.7H43.42l-2.05-71.19H53.24a157.21,157.21,0,0,0,8.57,23.8,83.05,83.05,0,0,0,13,19.85,58.81,58.81,0,0,0,17.8,13.77q10.19,5.13,23.66,5.12A53.18,53.18,0,0,0,133.88,349a29.56,29.56,0,0,0,19.19-18.84,45.86,45.86,0,0,0,2.27-15,41.84,41.84,0,0,0-7-23.25q-7-10.78-21-16.35-9.52-3.79-21.83-8.39t-21.24-8.68Q66.71,250.56,57,237.74t-9.74-33.47a51.12,51.12,0,0,1,4.84-22.11,57.56,57.56,0,0,1,13.77-18.3A62.33,62.33,0,0,1,85.9,151.92a68.56,68.56,0,0,1,24.17-4.32,70.79,70.79,0,0,1,25.71,4.4,122.75,122.75,0,0,1,20.73,10.25l6-10h11.71l1.18,69H163.54q-3.22-11.86-7.25-22.7A80.59,80.59,0,0,0,145.82,179a48.17,48.17,0,0,0-15.38-13.55q-9.09-5.06-22.27-5.05a34,34,0,0,0-23.73,8.93,28.43,28.43,0,0,0-9.81,21.83q0,13.47,6.29,22.34T99.23,228a227.31,227.31,0,0,0,21,8.86q10.32,3.74,20,8a149.47,149.47,0,0,1,16.92,8.64A63.58,63.58,0,0,1,171.31,264.79Z" transform="translate(-41.37 -147.6)"/><path d="M291.57,362.2c-3.8-3.8-7.4-7.6-12.6-13.2-11.6,10.8-24.6,15.4-39.4,15.4-26.2,0-41.4-17.6-41.4-37.8,0-18.4,11-31,26.4-39.4v-.6c-7-8.8-11.2-18.6-11.2-28.2,0-16.4,11.8-33.2,34.2-33.2,16.8,0,29.8,11.2,29.8,28.6,0,14.2-8.2,25.4-29.6,36v.6c11.4,13.2,24.2,28,32.8,37.6,6.2-9.4,10.4-22.4,13-39.4h16c-3.6,21.2-9.4,38-19.4,49.8,7.2,7.6,14.2,15.2,22.2,23.8ZM270.37,339c-8-8.8-23-25.2-38-42.4-7.2,4.6-17.4,13.2-17.4,27.4,0,15.4,11.4,27.2,27.6,27.2A37.66,37.66,0,0,0,270.37,339Zm-41-82.2c0,9.6,4.4,17,10.2,24.2,13.6-7.8,22.4-15,22.4-26.4,0-8.2-4.6-17.4-15.6-17.4C235.17,237.2,229.37,246.4,229.37,256.8Z" transform="translate(-41.37 -147.6)"/><path class="cls-1" d="M470.63,162a87.42,87.42,0,0,0-10.18,1.1,61.16,61.16,0,0,0-10.33,2.41,10.74,10.74,0,0,0-6.74,5.86,22.49,22.49,0,0,0-1.76,8.94V303.46A60.85,60.85,0,0,1,437.74,324a59.18,59.18,0,0,1-11.35,19.33,61.13,61.13,0,0,1-20.58,15.53q-11.94,5.57-27.32,5.57-23.88,0-38.75-13.41t-14.87-36.1A31.11,31.11,0,0,1,330,297.23q5.13-7.68,14.94-7.69,8.79,0,14.14,4.91t5.35,13a24.72,24.72,0,0,1-1.91,9.37,51.24,51.24,0,0,1-4.25,8.35q-2.19,3.38-5,7.91a38.88,38.88,0,0,0-4,8.2,26.21,26.21,0,0,0,9.59,8.5q6.52,3.66,17.51,3.66,10.68,0,17.5-4.91a29.67,29.67,0,0,0,10.18-13.11,71,71,0,0,0,4.62-18.75,203.57,203.57,0,0,0,1.39-24.9v-110a19.47,19.47,0,0,0-1.69-8.57q-1.68-3.43-6.95-6.08a41.42,41.42,0,0,0-11.36-3.59,103.61,103.61,0,0,0-11.2-1.53v-10.4h91.7Z" transform="translate(-41.37 -147.6)"/></svg>