<svg id="Layer_1" data-name="Layer 1" xmlns="http://www.w3.org/2000/svg" viewBox="0 0 1920 1080"><defs><style>.cls-1{fill:none;stroke:#047db6;stroke-width:20px;}.cls-1,.cls-2{stroke-miterlimit:10;}.cls-2{fill:#fff;stroke:#71b371;stroke-width:10px;}.cls-3{fill:#231f20;}</style></defs><line class="cls-1" x1="1305.26" y1="540.19" x2="1119.94" y2="540.19"/><line class="cls-1" x1="614.74" y1="539.88" x2="429.42" y2="539.88"/><rect class="cls-2" x="109.54" y="433.67" width="319.88" height="212.42"/><path class="cls-3" d="M230.81,547.76l5.31,1.34a17.85,17.85,0,0,1-6,10,16.53,16.53,0,0,1-10.6,3.43q-6.48,0-10.54-2.64a16.47,16.47,0,0,1-6.18-7.64,27.35,27.35,0,0,1-2.12-10.75,23.69,23.69,0,0,1,2.39-10.92,16.41,16.41,0,0,1,6.81-7.08,19.85,19.85,0,0,1,9.72-2.42,16.44,16.44,0,0,1,10.12,3.06,16,16,0,0,1,5.72,8.61L230.21,534a12.46,12.46,0,0,0-4-6.37,10.82,10.82,0,0,0-6.68-2,12.93,12.93,0,0,0-7.72,2.22,11.71,11.71,0,0,0-4.36,6,23.88,23.88,0,0,0-1.26,7.69,24.53,24.53,0,0,0,1.49,8.93,11,11,0,0,0,4.63,5.7,13,13,0,0,0,6.81,1.89,11.44,11.44,0,0,0,7.55-2.57A13.15,13.15,0,0,0,230.81,547.76Z"/><path class="cls-3" d="M241.92,561.82V521.73h4.92v40.09Z"/><path class="cls-3" d="M254.49,527.39v-5.66h4.93v5.66Zm0,34.43v-29h4.93v29Z"/><path class="cls-3" d="M286.79,552.46l5.08.63a12.44,12.44,0,0,1-4.45,6.92,13.41,13.41,0,0,1-8.32,2.46q-6.36,0-10.1-3.92t-3.73-11q0-7.32,3.77-11.37a12.78,12.78,0,0,1,9.79-4,12.45,12.45,0,0,1,9.52,4q3.69,4,3.69,11.16c0,.29,0,.73,0,1.31H270.35c.19,3.19,1.09,5.64,2.71,7.33a8,8,0,0,0,6.07,2.54,7.49,7.49,0,0,0,4.62-1.42A9.44,9.44,0,0,0,286.79,552.46Zm-16.16-8h16.21A9.84,9.84,0,0,0,285,539a7.56,7.56,0,0,0-6.1-2.84,7.79,7.79,0,0,0-5.7,2.27A8.94,8.94,0,0,0,270.63,544.51Z"/><path class="cls-3" d="M298.05,561.82v-29h4.43v4.13a10.45,10.45,0,0,1,9.24-4.79,12.13,12.13,0,0,1,4.83.94,7.62,7.62,0,0,1,3.3,2.48,9.76,9.76,0,0,1,1.53,3.63,28.66,28.66,0,0,1,.27,4.79v17.86h-4.92V544.15a13.11,13.11,0,0,0-.58-4.5,4.78,4.78,0,0,0-2-2.38,6.51,6.51,0,0,0-3.43-.88,8,8,0,0,0-5.43,2q-2.29,2-2.29,7.58v15.86Z"/><path class="cls-3" d="M339.94,557.41l.71,4.35a18.3,18.3,0,0,1-3.71.44,8.36,8.36,0,0,1-4.16-.85,4.7,4.7,0,0,1-2.08-2.23q-.6-1.38-.6-5.81V536.6h-3.61v-3.82h3.61v-7.2l4.89-3v10.15h4.95v3.82H335v17a8.67,8.67,0,0,0,.26,2.71,2.13,2.13,0,0,0,.85,1,3.24,3.24,0,0,0,1.68.35A15.51,15.51,0,0,0,339.94,557.41Z"/><line class="cls-1" x1="614.74" y1="831.49" x2="614.74" y2="248.26"/><path class="cls-3" d="M443.64,521.05h-2.19v-14a11.68,11.68,0,0,1-2.08,1.51,14.71,14.71,0,0,1-2.32,1.13v-2.12a13.43,13.43,0,0,0,3.23-2.1,8.37,8.37,0,0,0,2-2.39h1.41Z"/><path class="cls-3" d="M449.6,516.91l2.11-.2a3.6,3.6,0,0,0,1,2.16,2.8,2.8,0,0,0,1.94.68,3.38,3.38,0,0,0,1.78-.47,3.89,3.89,0,0,0,1.25-1.24,7.06,7.06,0,0,0,.81-2.09,11,11,0,0,0,.33-2.69c0-.09,0-.24,0-.44a5.1,5.1,0,0,1-1.8,1.71,4.93,4.93,0,0,1-2.47.65,5,5,0,0,1-3.76-1.61,5.89,5.89,0,0,1-1.54-4.25,6,6,0,0,1,1.61-4.38,5.35,5.35,0,0,1,4-1.66,5.7,5.7,0,0,1,3.19.94,5.86,5.86,0,0,1,2.2,2.68,13.2,13.2,0,0,1,.75,5,16.24,16.24,0,0,1-.75,5.47,6.37,6.37,0,0,1-2.21,3.09,5.72,5.72,0,0,1-3.45,1.06,4.72,4.72,0,0,1-5-4.44Zm9-7.9a4.3,4.3,0,0,0-1-3,3.16,3.16,0,0,0-2.42-1.11,3.35,3.35,0,0,0-2.55,1.19,4.41,4.41,0,0,0-1.09,3.1,3.82,3.82,0,0,0,1,2.78,3.42,3.42,0,0,0,2.55,1.07,3.29,3.29,0,0,0,2.51-1.07A4.23,4.23,0,0,0,458.6,509Z"/><path class="cls-3" d="M474.72,518.94v2.11H462.9a3.79,3.79,0,0,1,.25-1.53,8,8,0,0,1,1.45-2.38,23,23,0,0,1,2.87-2.71,24.41,24.41,0,0,0,3.95-3.79,4.54,4.54,0,0,0,1-2.64,3,3,0,0,0-.93-2.21,3.83,3.83,0,0,0-5,.06,3.62,3.62,0,0,0-1,2.64l-2.26-.24a5.56,5.56,0,0,1,1.75-3.85,5.94,5.94,0,0,1,4.06-1.32,5.64,5.64,0,0,1,4.08,1.43,4.68,4.68,0,0,1,1.5,3.54,5.43,5.43,0,0,1-.44,2.11,8.05,8.05,0,0,1-1.46,2.18,34.31,34.31,0,0,1-3.39,3.15c-1.31,1.11-2.16,1.86-2.54,2.26a6.93,6.93,0,0,0-.92,1.19Z"/><path class="cls-3" d="M478.31,521.05v-2.51h2.5v2.51Z"/><path class="cls-3" d="M492.3,521.05h-2.2v-14a11,11,0,0,1-2.08,1.51,15.09,15.09,0,0,1-2.31,1.13v-2.12a13.36,13.36,0,0,0,3.22-2.1,8.42,8.42,0,0,0,2-2.39h1.41Z"/><path class="cls-3" d="M509.33,507.53l-2.18.18a4.24,4.24,0,0,0-.83-1.88,2.91,2.91,0,0,0-2.2-.94,3,3,0,0,0-1.85.58,5,5,0,0,0-1.63,2.21,11.41,11.41,0,0,0-.62,4.14A5.12,5.12,0,0,1,502,510a5.18,5.18,0,0,1,2.4-.58,5,5,0,0,1,3.74,1.62,5.79,5.79,0,0,1,1.55,4.18,6.83,6.83,0,0,1-.73,3.13,5.29,5.29,0,0,1-2,2.21,5.41,5.41,0,0,1-2.89.77,5.63,5.63,0,0,1-4.48-2q-1.72-2-1.73-6.66,0-5.19,1.92-7.54a5.48,5.48,0,0,1,4.5-2.05,4.79,4.79,0,0,1,5.08,4.45Zm-9,7.72a5.09,5.09,0,0,0,.48,2.17,3.57,3.57,0,0,0,1.35,1.58,3.4,3.4,0,0,0,1.82.55,3.1,3.1,0,0,0,2.39-1.13,4.4,4.4,0,0,0,1-3,4.12,4.12,0,0,0-1-2.92,3.26,3.26,0,0,0-2.49-1.07,3.39,3.39,0,0,0-2.52,1.07A3.8,3.8,0,0,0,500.36,515.25Z"/><path class="cls-3" d="M515.21,511.34a4.1,4.1,0,0,1-2-1.43,3.69,3.69,0,0,1-.66-2.22,4.36,4.36,0,0,1,1.4-3.28,5.91,5.91,0,0,1,7.51,0,4.41,4.41,0,0,1,1.43,3.31,3.69,3.69,0,0,1-.65,2.17,4.08,4.08,0,0,1-2,1.42,4.58,4.58,0,0,1,3.37,4.59,5.15,5.15,0,0,1-1.62,3.86,5.93,5.93,0,0,1-4.28,1.56,5.87,5.87,0,0,1-4.27-1.57,5.21,5.21,0,0,1-1.62-3.91,4.71,4.71,0,0,1,.88-2.92A4.44,4.44,0,0,1,515.21,511.34Zm-1.14,4.54a4,4,0,0,0,.44,1.82,3.12,3.12,0,0,0,1.33,1.36,3.75,3.75,0,0,0,1.89.49,3.53,3.53,0,0,0,2.6-1,3.46,3.46,0,0,0,1-2.57,3.54,3.54,0,0,0-1.05-2.63,3.64,3.64,0,0,0-2.64-1,3.5,3.5,0,0,0-3.59,3.59Zm.7-8.26a2.78,2.78,0,0,0,.82,2.07,2.91,2.91,0,0,0,2.13.81,2.86,2.86,0,0,0,2.08-.8,2.63,2.63,0,0,0,.81-2,2.74,2.74,0,0,0-.84-2,2.83,2.83,0,0,0-2.08-.82,2.87,2.87,0,0,0-2.09.8A2.61,2.61,0,0,0,514.77,507.62Z"/><path class="cls-3" d="M527,521.05v-2.51h2.5v2.51Z"/><path class="cls-3" d="M536.06,511.34a4.1,4.1,0,0,1-2-1.43,3.69,3.69,0,0,1-.66-2.22,4.36,4.36,0,0,1,1.4-3.28,5.91,5.91,0,0,1,7.51,0,4.41,4.41,0,0,1,1.43,3.31,3.62,3.62,0,0,1-.66,2.17,4,4,0,0,1-2,1.42,4.58,4.58,0,0,1,3.37,4.59,5.15,5.15,0,0,1-1.62,3.86,5.93,5.93,0,0,1-4.28,1.56,5.87,5.87,0,0,1-4.27-1.57,5.21,5.21,0,0,1-1.62-3.91,4.71,4.71,0,0,1,.88-2.92A4.44,4.44,0,0,1,536.06,511.34Zm-1.14,4.54a3.91,3.91,0,0,0,.44,1.82,3.12,3.12,0,0,0,1.33,1.36,3.75,3.75,0,0,0,1.89.49,3.53,3.53,0,0,0,2.6-1,3.46,3.46,0,0,0,1-2.57,3.54,3.54,0,0,0-1.05-2.63,3.64,3.64,0,0,0-2.64-1,3.5,3.5,0,0,0-3.59,3.59Zm.7-8.26a2.78,2.78,0,0,0,.82,2.07,2.91,2.91,0,0,0,2.13.81,2.86,2.86,0,0,0,2.08-.8,2.63,2.63,0,0,0,.81-2,2.74,2.74,0,0,0-.84-2,2.83,2.83,0,0,0-2.08-.82,2.87,2.87,0,0,0-2.09.8A2.61,2.61,0,0,0,535.62,507.62Z"/><path class="cls-3" d="M550,511.34a4.13,4.13,0,0,1-2-1.43,3.69,3.69,0,0,1-.66-2.22,4.34,4.34,0,0,1,1.41-3.28,5.9,5.9,0,0,1,7.5,0,4.38,4.38,0,0,1,1.43,3.31,3.69,3.69,0,0,1-.65,2.17,4.08,4.08,0,0,1-2,1.42,4.8,4.8,0,0,1,2.51,1.74,4.7,4.7,0,0,1,.86,2.85,5.15,5.15,0,0,1-1.62,3.86,6.61,6.61,0,0,1-8.54,0,5.18,5.18,0,0,1-1.63-3.91,4.72,4.72,0,0,1,.89-2.92A4.44,4.44,0,0,1,550,511.34Zm-1.15,4.54a3.92,3.92,0,0,0,.45,1.82,3,3,0,0,0,1.32,1.36,3.81,3.81,0,0,0,1.89.49,3.53,3.53,0,0,0,2.6-1,3.43,3.43,0,0,0,1-2.57,3.51,3.51,0,0,0-1.06-2.63,3.61,3.61,0,0,0-2.64-1,3.5,3.5,0,0,0-3.59,3.59Zm.71-8.26a2.74,2.74,0,0,0,.82,2.07,2.87,2.87,0,0,0,2.12.81,2.84,2.84,0,0,0,2.08-.8,2.63,2.63,0,0,0,.81-2,2.77,2.77,0,0,0-.83-2,3.09,3.09,0,0,0-4.17,0A2.57,2.57,0,0,0,549.53,507.62Z"/><path class="cls-3" d="M561.72,521.05v-2.51h2.51v2.51Z"/><path class="cls-3" d="M579,518.94v2.11H567.16a3.79,3.79,0,0,1,.25-1.53,8,8,0,0,1,1.45-2.38,23,23,0,0,1,2.87-2.71,24.41,24.41,0,0,0,3.95-3.79,4.54,4.54,0,0,0,1-2.64,3,3,0,0,0-.93-2.21,3.83,3.83,0,0,0-5,.06,3.62,3.62,0,0,0-1,2.64l-2.26-.24a5.56,5.56,0,0,1,1.75-3.85,5.94,5.94,0,0,1,4.06-1.32,5.64,5.64,0,0,1,4.08,1.43,4.68,4.68,0,0,1,1.5,3.54,5.43,5.43,0,0,1-.44,2.11,8.05,8.05,0,0,1-1.46,2.18,34.31,34.31,0,0,1-3.39,3.15c-1.31,1.11-2.16,1.86-2.54,2.26a6.93,6.93,0,0,0-.92,1.19Z"/><line class="cls-1" x1="800.06" y1="539.88" x2="614.74" y2="539.88"/><rect class="cls-2" x="800.06" y="433.67" width="319.88" height="212.42"/><path class="cls-3" d="M880.36,561.82V521.73h17.77a23.64,23.64,0,0,1,8.15,1.08,8.91,8.91,0,0,1,4.46,3.81,11.43,11.43,0,0,1,1.67,6,10.09,10.09,0,0,1-2.76,7.19q-2.76,2.92-8.53,3.72a13.83,13.83,0,0,1,3.19,2,27.83,27.83,0,0,1,4.41,5.34l7,10.91H909l-5.31-8.34c-1.55-2.41-2.82-4.25-3.83-5.53a12.17,12.17,0,0,0-2.69-2.68,7.91,7.91,0,0,0-2.42-1.06,15.47,15.47,0,0,0-2.95-.2h-6.15v17.81Zm5.31-22.4h11.4a17.19,17.19,0,0,0,5.69-.75,6,6,0,0,0,3.11-2.41,6.5,6.5,0,0,0,1.07-3.59,6,6,0,0,0-2.06-4.68q-2.07-1.83-6.53-1.83H885.67Z"/><path class="cls-3" d="M918.26,547.3q0-8.07,4.48-11.95a13.55,13.55,0,0,1,9.14-3.23,13.06,13.06,0,0,1,9.79,3.92q3.8,3.93,3.8,10.85a19.2,19.2,0,0,1-1.68,8.81,11.91,11.91,0,0,1-4.9,5,14.19,14.19,0,0,1-7,1.78,13,13,0,0,1-9.86-3.91Q918.26,554.66,918.26,547.3Zm5.06,0c0,3.71.81,6.5,2.43,8.35a8.11,8.11,0,0,0,12.22,0q2.44-2.79,2.44-8.51,0-5.39-2.45-8.16a8.1,8.1,0,0,0-12.21,0Q923.32,541.72,923.32,547.3Z"/><path class="cls-3" d="M970.27,561.82v-4.27a10.63,10.63,0,0,1-9.22,4.92,11.88,11.88,0,0,1-4.8-1A7.89,7.89,0,0,1,953,559a9.23,9.23,0,0,1-1.52-3.65,24.94,24.94,0,0,1-.3-4.59v-18h4.92v16.1a28.89,28.89,0,0,0,.3,5.2,5.17,5.17,0,0,0,2,3,6.14,6.14,0,0,0,3.72,1.1,8,8,0,0,0,4.15-1.13,6.33,6.33,0,0,0,2.75-3.09,15.47,15.47,0,0,0,.81-5.68V532.78h4.92v29Z"/><path class="cls-3" d="M993.13,557.41l.71,4.35a18.47,18.47,0,0,1-3.72.44,8.38,8.38,0,0,1-4.16-.85,4.8,4.8,0,0,1-2.08-2.23q-.6-1.38-.6-5.81V536.6h-3.61v-3.82h3.61v-7.2l4.9-3v10.15h5v3.82h-5v17a8.36,8.36,0,0,0,.26,2.71,2,2,0,0,0,.85,1,3.24,3.24,0,0,0,1.68.35A15.76,15.76,0,0,0,993.13,557.41Z"/><path class="cls-3" d="M1017.82,552.46l5.08.63a12.39,12.39,0,0,1-4.45,6.92,13.41,13.41,0,0,1-8.32,2.46q-6.36,0-10.1-3.92t-3.73-11q0-7.32,3.77-11.37a12.78,12.78,0,0,1,9.79-4,12.43,12.43,0,0,1,9.52,4q3.69,4,3.69,11.16c0,.29,0,.73,0,1.31h-21.66c.19,3.19,1.09,5.64,2.71,7.33a8,8,0,0,0,6.07,2.54,7.49,7.49,0,0,0,4.62-1.42A9.44,9.44,0,0,0,1017.82,552.46Zm-16.16-8h16.21A9.84,9.84,0,0,0,1016,539a7.54,7.54,0,0,0-6.09-2.84,7.81,7.81,0,0,0-5.71,2.27A8.94,8.94,0,0,0,1001.66,544.51Z"/><path class="cls-3" d="M1029,561.82v-29h4.43v4.4a12,12,0,0,1,3.13-4.08,5.52,5.52,0,0,1,3.16-1,9.6,9.6,0,0,1,5.06,1.59l-1.7,4.56a7,7,0,0,0-3.61-1.06,4.69,4.69,0,0,0-2.9,1,5.28,5.28,0,0,0-1.83,2.69,19,19,0,0,0-.82,5.74v15.21Z"/><path class="cls-3" d="M657.06,521.05h-2.2v-14a11.33,11.33,0,0,1-2.08,1.51,15.09,15.09,0,0,1-2.31,1.13v-2.12a13.56,13.56,0,0,0,3.22-2.1,8.2,8.2,0,0,0,1.95-2.39h1.42Z"/><path class="cls-3" d="M663,516.91l2.12-.2a3.65,3.65,0,0,0,1,2.16,2.82,2.82,0,0,0,1.94.68,3.35,3.35,0,0,0,1.78-.47,3.8,3.8,0,0,0,1.25-1.24,7,7,0,0,0,.82-2.09,11,11,0,0,0,.33-2.69c0-.09,0-.24,0-.44a5.1,5.1,0,0,1-1.8,1.71,5.14,5.14,0,0,1-6.24-1,5.93,5.93,0,0,1-1.53-4.25,6,6,0,0,1,1.6-4.38,5.35,5.35,0,0,1,4-1.66,5.68,5.68,0,0,1,3.19.94,5.86,5.86,0,0,1,2.2,2.68,13.2,13.2,0,0,1,.75,5,16.53,16.53,0,0,1-.74,5.47,6.45,6.45,0,0,1-2.22,3.09,5.72,5.72,0,0,1-3.45,1.06,4.72,4.72,0,0,1-5-4.44Zm9-7.9a4.26,4.26,0,0,0-1-3,3.16,3.16,0,0,0-2.42-1.11,3.35,3.35,0,0,0-2.55,1.19,4.46,4.46,0,0,0-1.09,3.1,3.86,3.86,0,0,0,1,2.78,3.42,3.42,0,0,0,2.55,1.07A3.27,3.27,0,0,0,671,512,4.23,4.23,0,0,0,672,509Z"/><path class="cls-3" d="M688.14,518.94v2.11H676.31a4,4,0,0,1,.25-1.53,8.41,8.41,0,0,1,1.45-2.38,22.49,22.49,0,0,1,2.88-2.71,24.24,24.24,0,0,0,3.94-3.79,4.54,4.54,0,0,0,1-2.64,3,3,0,0,0-.93-2.21,3.82,3.82,0,0,0-5,.06,3.58,3.58,0,0,0-1,2.64l-2.26-.24a5.6,5.6,0,0,1,1.75-3.85,6,6,0,0,1,4.06-1.32,5.64,5.64,0,0,1,4.08,1.43,4.68,4.68,0,0,1,1.5,3.54,5.26,5.26,0,0,1-.44,2.11,8.05,8.05,0,0,1-1.46,2.18,33.94,33.94,0,0,1-3.38,3.15c-1.32,1.11-2.17,1.86-2.54,2.26a6.54,6.54,0,0,0-.93,1.19Z"/><path class="cls-3" d="M691.73,521.05v-2.51h2.5v2.51Z"/><path class="cls-3" d="M705.71,521.05h-2.19v-14a11.68,11.68,0,0,1-2.08,1.51,14.71,14.71,0,0,1-2.32,1.13v-2.12a13.43,13.43,0,0,0,3.23-2.1,8.2,8.2,0,0,0,1.95-2.39h1.41Z"/><path class="cls-3" d="M722.74,507.53l-2.18.18a4.13,4.13,0,0,0-.83-1.88,2.91,2.91,0,0,0-2.2-.94,3,3,0,0,0-1.84.58,5.06,5.06,0,0,0-1.64,2.21,11.63,11.63,0,0,0-.62,4.14,5.19,5.19,0,0,1,1.94-1.8,5.25,5.25,0,0,1,2.41-.58,5,5,0,0,1,3.74,1.62,5.78,5.78,0,0,1,1.54,4.18,6.83,6.83,0,0,1-.73,3.13,5.22,5.22,0,0,1-2,2.21,5.4,5.4,0,0,1-2.88.77,5.61,5.61,0,0,1-4.48-2q-1.74-2-1.74-6.66,0-5.19,1.92-7.54a5.52,5.52,0,0,1,4.51-2.05,4.77,4.77,0,0,1,5.07,4.45Zm-9,7.72a5.09,5.09,0,0,0,.48,2.17A3.63,3.63,0,0,0,715.6,519a3.42,3.42,0,0,0,1.82.55,3.08,3.08,0,0,0,2.39-1.13,4.4,4.4,0,0,0,1-3,4.11,4.11,0,0,0-1-2.92,3.26,3.26,0,0,0-2.49-1.07,3.39,3.39,0,0,0-2.53,1.07A3.84,3.84,0,0,0,713.77,515.25Z"/><path class="cls-3" d="M728.63,511.34a4.13,4.13,0,0,1-2-1.43,3.69,3.69,0,0,1-.66-2.22,4.34,4.34,0,0,1,1.41-3.28,5.9,5.9,0,0,1,7.5,0,4.38,4.38,0,0,1,1.43,3.31,3.69,3.69,0,0,1-.65,2.17,4.08,4.08,0,0,1-2,1.42,4.8,4.8,0,0,1,2.51,1.74,4.7,4.7,0,0,1,.86,2.85,5.15,5.15,0,0,1-1.62,3.86,6.61,6.61,0,0,1-8.54,0,5.18,5.18,0,0,1-1.63-3.91,4.72,4.72,0,0,1,.89-2.92A4.44,4.44,0,0,1,728.63,511.34Zm-1.15,4.54a3.92,3.92,0,0,0,.45,1.82,3,3,0,0,0,1.32,1.36,3.81,3.81,0,0,0,1.89.49,3.53,3.53,0,0,0,2.6-1,3.43,3.43,0,0,0,1-2.57,3.51,3.51,0,0,0-1.06-2.63,3.61,3.61,0,0,0-2.64-1,3.5,3.5,0,0,0-3.59,3.59Zm.71-8.26a2.74,2.74,0,0,0,.82,2.07,2.87,2.87,0,0,0,2.12.81,2.84,2.84,0,0,0,2.08-.8,2.63,2.63,0,0,0,.81-2,2.77,2.77,0,0,0-.83-2,3.09,3.09,0,0,0-4.17,0A2.57,2.57,0,0,0,728.19,507.62Z"/><path class="cls-3" d="M740.38,521.05v-2.51h2.51v2.51Z"/><path class="cls-3" d="M749.48,511.34a4.13,4.13,0,0,1-2-1.43,3.69,3.69,0,0,1-.66-2.22,4.34,4.34,0,0,1,1.41-3.28,5.9,5.9,0,0,1,7.5,0,4.41,4.41,0,0,1,1.43,3.31,3.69,3.69,0,0,1-.65,2.17,4.08,4.08,0,0,1-2,1.42,4.8,4.8,0,0,1,2.51,1.74,4.7,4.7,0,0,1,.86,2.85,5.15,5.15,0,0,1-1.62,3.86,6.62,6.62,0,0,1-8.55,0,5.21,5.21,0,0,1-1.62-3.91A4.72,4.72,0,0,1,747,513,4.44,4.44,0,0,1,749.48,511.34Zm-1.15,4.54a4,4,0,0,0,.44,1.82,3.12,3.12,0,0,0,1.33,1.36,3.81,3.81,0,0,0,1.89.49,3.53,3.53,0,0,0,2.6-1,3.43,3.43,0,0,0,1-2.57,3.51,3.51,0,0,0-1.06-2.63,3.61,3.61,0,0,0-2.64-1,3.5,3.5,0,0,0-3.59,3.59Zm.71-8.26a2.74,2.74,0,0,0,.82,2.07,2.87,2.87,0,0,0,2.12.81,2.84,2.84,0,0,0,2.08-.8,2.63,2.63,0,0,0,.81-2,2.77,2.77,0,0,0-.83-2,3.09,3.09,0,0,0-4.17,0A2.57,2.57,0,0,0,749,507.62Z"/><path class="cls-3" d="M763.38,511.34a4.13,4.13,0,0,1-2-1.43,3.76,3.76,0,0,1-.65-2.22,4.33,4.33,0,0,1,1.4-3.28,5.18,5.18,0,0,1,3.73-1.33,5.25,5.25,0,0,1,3.78,1.36,4.4,4.4,0,0,1,1.42,3.31,3.62,3.62,0,0,1-.65,2.17,4.05,4.05,0,0,1-2,1.42,4.84,4.84,0,0,1,2.51,1.74,4.76,4.76,0,0,1,.86,2.85,5.12,5.12,0,0,1-1.63,3.86,6.61,6.61,0,0,1-8.54,0,5.21,5.21,0,0,1-1.62-3.91,4.71,4.71,0,0,1,.88-2.92A4.44,4.44,0,0,1,763.38,511.34Zm-1.15,4.54a3.92,3.92,0,0,0,.45,1.82,3.15,3.15,0,0,0,1.32,1.36,3.82,3.82,0,0,0,1.9.49,3.54,3.54,0,0,0,2.6-1,3.46,3.46,0,0,0,1-2.57,3.51,3.51,0,0,0-1.06-2.63,3.61,3.61,0,0,0-2.64-1,3.5,3.5,0,0,0-3.59,3.59Zm.71-8.26a2.74,2.74,0,0,0,.82,2.07,2.87,2.87,0,0,0,2.12.81,2.84,2.84,0,0,0,2.08-.8,2.6,2.6,0,0,0,.82-2,2.74,2.74,0,0,0-.84-2,3.09,3.09,0,0,0-4.17,0A2.61,2.61,0,0,0,762.94,507.62Z"/><path class="cls-3" d="M775.14,521.05v-2.51h2.5v2.51Z"/><path class="cls-3" d="M789.13,521.05h-2.2v-14a11.33,11.33,0,0,1-2.08,1.51,14.71,14.71,0,0,1-2.32,1.13v-2.12a13.43,13.43,0,0,0,3.23-2.1,8.2,8.2,0,0,0,2-2.39h1.42Z"/><path class="cls-3" d="M1137.73,524.92h-2.19v-14a11.69,11.69,0,0,1-2.08,1.52,14.71,14.71,0,0,1-2.32,1.13v-2.12a13.36,13.36,0,0,0,3.22-2.1,8.42,8.42,0,0,0,2-2.39h1.41Z"/><path class="cls-3" d="M1143.36,516.1A16.54,16.54,0,0,1,1144,511a6.46,6.46,0,0,1,2-3,5,5,0,0,1,3.24-1,5.21,5.21,0,0,1,2.52.58,4.79,4.79,0,0,1,1.8,1.67,9,9,0,0,1,1.11,2.66,17.56,17.56,0,0,1,.4,4.23,16.12,16.12,0,0,1-.65,5.08,6.31,6.31,0,0,1-1.93,3,5.44,5.44,0,0,1-7.32-.8Q1143.36,521.14,1143.36,516.1Zm2.26,0q0,4.41,1,5.86a2.95,2.95,0,0,0,5.09,0q1-1.47,1-5.86c0-3-.34-4.9-1-5.87a3.06,3.06,0,0,0-2.57-1.46,2.82,2.82,0,0,0-2.42,1.29Q1145.63,511.69,1145.62,516.1Z"/><path class="cls-3" d="M1158.5,524.92v-2.5h2.5v2.5Z"/><path class="cls-3" d="M1164.21,516.1a16.54,16.54,0,0,1,.65-5.11,6.52,6.52,0,0,1,1.94-3,5,5,0,0,1,3.25-1,5.21,5.21,0,0,1,2.52.58,4.79,4.79,0,0,1,1.8,1.67,9,9,0,0,1,1.11,2.66,17.56,17.56,0,0,1,.4,4.23,16.12,16.12,0,0,1-.65,5.08,6.31,6.31,0,0,1-1.93,3,5.44,5.44,0,0,1-7.32-.8Q1164.21,521.14,1164.21,516.1Zm2.26,0q0,4.41,1,5.86a2.95,2.95,0,0,0,5.09,0q1-1.47,1-5.86c0-3-.34-4.9-1-5.87a3.06,3.06,0,0,0-2.57-1.46,2.82,2.82,0,0,0-2.42,1.29Q1166.47,511.69,1166.47,516.1Z"/><path class="cls-3" d="M1179.35,524.92v-2.5h2.5v2.5Z"/><path class="cls-3" d="M1185.06,516.1a16.54,16.54,0,0,1,.65-5.11,6.52,6.52,0,0,1,1.94-3,5,5,0,0,1,3.25-1,5.21,5.21,0,0,1,2.52.58,4.79,4.79,0,0,1,1.8,1.67,9,9,0,0,1,1.11,2.66,17.56,17.56,0,0,1,.4,4.23,16.42,16.42,0,0,1-.65,5.08,6.31,6.31,0,0,1-1.93,3,5.44,5.44,0,0,1-7.32-.8Q1185.06,521.14,1185.06,516.1Zm2.26,0q0,4.41,1,5.86a2.95,2.95,0,0,0,5.09,0q1-1.47,1-5.86c0-3-.34-4.9-1-5.87a3.06,3.06,0,0,0-2.57-1.46,2.82,2.82,0,0,0-2.42,1.29Q1187.33,511.69,1187.32,516.1Z"/><path class="cls-3" d="M1200.2,524.92v-2.5h2.5v2.5Z"/><path class="cls-3" d="M1214.19,524.92H1212v-14a11.33,11.33,0,0,1-2.08,1.52,14.71,14.71,0,0,1-2.32,1.13v-2.12a13.43,13.43,0,0,0,3.23-2.1,8.2,8.2,0,0,0,2-2.39h1.42Z"/><line class="cls-1" x1="1305.26" y1="831.49" x2="1305.26" y2="248.26"/><line class="cls-1" x1="1490.58" y1="540.5" x2="1305.26" y2="540.5"/><line class="cls-1" x1="1490.58" y1="258.24" x2="1305.26" y2="258.24"/><rect class="cls-2" x="1490.58" y="434.29" width="319.88" height="212.42"/><path class="cls-3" d="M1522.31,562.44V522.35h15a18.64,18.64,0,0,1,7.37,1.22,9.48,9.48,0,0,1,4.34,3.74,9.88,9.88,0,0,1,1.58,5.29,9.07,9.07,0,0,1-1.4,4.84,9.91,9.91,0,0,1-4.21,3.67,10.43,10.43,0,0,1,5.59,3.64,9.74,9.74,0,0,1,2,6.07,11.74,11.74,0,0,1-1.19,5.23,10.17,10.17,0,0,1-2.94,3.73,12.27,12.27,0,0,1-4.39,2,27.07,27.07,0,0,1-6.47.67Zm5.3-23.25h8.67a19.4,19.4,0,0,0,5.06-.46,5.64,5.64,0,0,0,3.05-2,5.76,5.76,0,0,0,1-3.5,6.5,6.5,0,0,0-1-3.51,4.88,4.88,0,0,0-2.74-2.08,23,23,0,0,0-6.1-.56h-8Zm0,18.52h10a22.32,22.32,0,0,0,3.61-.2,8.48,8.48,0,0,0,3.06-1.09,5.8,5.8,0,0,0,2-2.23,6.93,6.93,0,0,0,.79-3.37,6.62,6.62,0,0,0-1.15-3.9,6.1,6.1,0,0,0-3.18-2.33,20,20,0,0,0-5.87-.67h-9.27Z"/><path class="cls-3" d="M1578.2,558.85a18.34,18.34,0,0,1-5.27,3.29,15.33,15.33,0,0,1-5.42,1c-3.19,0-5.65-.78-7.36-2.34a7.7,7.7,0,0,1-2.57-6,7.94,7.94,0,0,1,1-3.9,8.18,8.18,0,0,1,2.54-2.83,12.1,12.1,0,0,1,3.55-1.61,36.4,36.4,0,0,1,4.37-.74,45.38,45.38,0,0,0,8.78-1.69q0-1,0-1.29c0-2-.47-3.42-1.4-4.24a8.25,8.25,0,0,0-5.6-1.66,8.7,8.7,0,0,0-5.13,1.21,7.41,7.41,0,0,0-2.45,4.31l-4.81-.66a12,12,0,0,1,2.16-5,9.46,9.46,0,0,1,4.35-2.92,19.2,19.2,0,0,1,6.59-1,17.29,17.29,0,0,1,6,.88,7.89,7.89,0,0,1,3.42,2.2,7.69,7.69,0,0,1,1.53,3.35,28.41,28.41,0,0,1,.24,4.54v6.56a69.14,69.14,0,0,0,.32,8.68,11,11,0,0,0,1.24,3.49h-5.14A10.34,10.34,0,0,1,1578.2,558.85Zm-.41-11a36.14,36.14,0,0,1-8,1.86,18.06,18.06,0,0,0-4.29,1,4.19,4.19,0,0,0-2.63,3.93,4.18,4.18,0,0,0,1.49,3.28,6.38,6.38,0,0,0,4.36,1.32,10.15,10.15,0,0,0,5.06-1.25,7.69,7.69,0,0,0,3.26-3.4,12,12,0,0,0,.79-4.92Z"/><path class="cls-3" d="M1609.34,551.8l4.84.63a12.54,12.54,0,0,1-4.06,7.83,11.81,11.81,0,0,1-8,2.83,12.5,12.5,0,0,1-9.59-3.89q-3.62-3.9-3.62-11.17a20.17,20.17,0,0,1,1.56-8.23,10.88,10.88,0,0,1,4.74-5.3,14.17,14.17,0,0,1,6.93-1.76,12.06,12.06,0,0,1,7.74,2.39,11,11,0,0,1,3.86,6.8l-4.79.74a7.94,7.94,0,0,0-2.42-4.41,6.27,6.27,0,0,0-4.19-1.47,7.67,7.67,0,0,0-6,2.66q-2.32,2.67-2.32,8.44c0,3.9.75,6.74,2.24,8.5a7.3,7.3,0,0,0,5.85,2.66,6.92,6.92,0,0,0,4.84-1.78A8.77,8.77,0,0,0,1609.34,551.8Z"/><path class="cls-3" d="M1618.42,562.44V522.35h4.92v22.86L1635,533.4h6.37l-11.1,10.77,12.22,18.27h-6.07l-9.59-14.85-3.48,3.33v11.52Z"/><path class="cls-3" d="M1666.27,553.08l5.09.63a12.37,12.37,0,0,1-4.46,6.92,13.4,13.4,0,0,1-8.31,2.46q-6.37,0-10.1-3.92t-3.74-11q0-7.32,3.78-11.37a12.75,12.75,0,0,1,9.79-4,12.39,12.39,0,0,1,9.51,4q3.69,4,3.69,11.15c0,.29,0,.73,0,1.31h-21.66q.27,4.8,2.71,7.33a8,8,0,0,0,6.07,2.55,7.54,7.54,0,0,0,4.62-1.43A9.45,9.45,0,0,0,1666.27,553.08Zm-16.16-8h16.22a9.87,9.87,0,0,0-1.86-5.5,7.56,7.56,0,0,0-6.1-2.84,7.79,7.79,0,0,0-5.7,2.27A9,9,0,0,0,1650.11,545.13Z"/><path class="cls-3" d="M1677.54,562.44v-29H1682v4.13a10.43,10.43,0,0,1,9.24-4.79,12.31,12.31,0,0,1,4.83.94,7.65,7.65,0,0,1,3.29,2.48,9.43,9.43,0,0,1,1.53,3.64,28.14,28.14,0,0,1,.28,4.78v17.86h-4.93V544.77a13.41,13.41,0,0,0-.57-4.5,4.69,4.69,0,0,0-2-2.37,6.4,6.4,0,0,0-3.43-.89,8,8,0,0,0-5.43,2q-2.28,2-2.28,7.58v15.86Z"/><path class="cls-3" d="M1727.52,562.44v-3.67a9,9,0,0,1-8.12,4.32,11.35,11.35,0,0,1-6.38-1.91,12.66,12.66,0,0,1-4.52-5.35,18.53,18.53,0,0,1-1.59-7.89,20.75,20.75,0,0,1,1.44-7.88,11.38,11.38,0,0,1,10.83-7.32,9.69,9.69,0,0,1,8,4V522.35h4.9v40.09ZM1712,547.94q0,5.58,2.36,8.34a7.05,7.05,0,0,0,5.55,2.77,7,7,0,0,0,5.48-2.64q2.25-2.64,2.25-8.06,0-6-2.29-8.75a7.08,7.08,0,0,0-5.66-2.78,6.79,6.79,0,0,0-5.48,2.68C1712.7,541.28,1712,544.1,1712,547.94Z"/><path class="cls-3" d="M1772.56,562.44h-4.92V531.07a25.46,25.46,0,0,1-4.67,3.39,33.51,33.51,0,0,1-5.18,2.55v-4.76a29.68,29.68,0,0,0,7.22-4.7,18.59,18.59,0,0,0,4.38-5.36h3.17Z"/><rect class="cls-2" x="1490.58" y="152.03" width="319.88" height="212.42"/><path class="cls-3" d="M1592.33,245.18V205.09h5.31v35.36h19.74v4.73Z"/><path class="cls-3" d="M1621.24,230.66q0-8.07,4.48-11.95a13.52,13.52,0,0,1,9.13-3.23,13,13,0,0,1,9.79,3.92q3.81,3.93,3.8,10.85a19.2,19.2,0,0,1-1.68,8.81,11.82,11.82,0,0,1-4.89,5,14.2,14.2,0,0,1-7,1.78,13,13,0,0,1-9.85-3.91Q1621.24,238,1621.24,230.66Zm5.06,0q0,5.58,2.43,8.35a8.09,8.09,0,0,0,12.22,0c1.62-1.86,2.44-4.7,2.44-8.51q0-5.38-2.45-8.16a8.1,8.1,0,0,0-12.21,0Q1626.3,225.08,1626.3,230.66Z"/><path class="cls-3" d="M1673.16,241.59a18.44,18.44,0,0,1-5.26,3.29,15.42,15.42,0,0,1-5.43,1q-4.79,0-7.35-2.34a7.68,7.68,0,0,1-2.57-6,8.1,8.1,0,0,1,3.51-6.73,11.9,11.9,0,0,1,3.54-1.61,34.7,34.7,0,0,1,4.38-.74,45.09,45.09,0,0,0,8.77-1.69q0-1,0-1.29c0-2-.46-3.42-1.39-4.24a8.26,8.26,0,0,0-5.61-1.67,8.71,8.71,0,0,0-5.13,1.22,7.41,7.41,0,0,0-2.44,4.31l-4.82-.66a12,12,0,0,1,2.16-5,9.51,9.51,0,0,1,4.35-2.92,19.24,19.24,0,0,1,6.59-1,17.25,17.25,0,0,1,6,.88,7.89,7.89,0,0,1,3.42,2.2,7.69,7.69,0,0,1,1.53,3.35,26.92,26.92,0,0,1,.25,4.54V233a69.94,69.94,0,0,0,.31,8.68,11.08,11.08,0,0,0,1.25,3.49h-5.14A10.56,10.56,0,0,1,1673.16,241.59Zm-.41-11a35.85,35.85,0,0,1-8,1.86,18.19,18.19,0,0,0-4.29,1,4.17,4.17,0,0,0-2.62,3.93,4.15,4.15,0,0,0,1.49,3.28,6.37,6.37,0,0,0,4.36,1.32,10.18,10.18,0,0,0,5.06-1.25,7.67,7.67,0,0,0,3.25-3.4,11.86,11.86,0,0,0,.79-4.92Z"/><path class="cls-3" d="M1704.2,245.18v-3.67a9,9,0,0,1-8.12,4.32,11.43,11.43,0,0,1-6.39-1.91,12.64,12.64,0,0,1-4.51-5.35,18.41,18.41,0,0,1-1.6-7.89,20.65,20.65,0,0,1,1.45-7.89,11.42,11.42,0,0,1,4.35-5.42,11.6,11.6,0,0,1,6.48-1.89,9.62,9.62,0,0,1,4.67,1.11,9.85,9.85,0,0,1,3.34,2.88V205.09h4.89v40.09Zm-15.56-14.5q0,5.58,2.35,8.34a7.11,7.11,0,0,0,5.55,2.77,7,7,0,0,0,5.48-2.64q2.26-2.64,2.26-8.06,0-6-2.3-8.75a7.05,7.05,0,0,0-5.66-2.79,6.85,6.85,0,0,0-5.48,2.68Q1688.63,224.92,1688.64,230.68Z"/><path class="cls-3" d="M1544.11,312.38V272.29h15a18.61,18.61,0,0,1,7.37,1.22,9.51,9.51,0,0,1,4.35,3.74,9.87,9.87,0,0,1,1.57,5.29,9.06,9.06,0,0,1-1.39,4.84,10,10,0,0,1-4.21,3.67,10.51,10.51,0,0,1,5.59,3.63,9.78,9.78,0,0,1,2,6.07,11.61,11.61,0,0,1-1.19,5.24,10.05,10.05,0,0,1-2.94,3.73,12.22,12.22,0,0,1-4.38,2,27.07,27.07,0,0,1-6.47.67Zm5.31-23.25h8.67a19.46,19.46,0,0,0,5.06-.46,5.62,5.62,0,0,0,3-2,5.7,5.7,0,0,0,1-3.5,6.42,6.42,0,0,0-1-3.51,4.89,4.89,0,0,0-2.73-2.08,23,23,0,0,0-6.1-.56h-8Zm0,18.52h10a22.41,22.41,0,0,0,3.61-.2,8.48,8.48,0,0,0,3.06-1.09,5.7,5.7,0,0,0,2-2.23,7,7,0,0,0,.8-3.38,6.69,6.69,0,0,0-1.15-3.89,6.12,6.12,0,0,0-3.19-2.33,19.91,19.91,0,0,0-5.86-.67h-9.27Z"/><path class="cls-3" d="M1600,308.79a18.3,18.3,0,0,1-5.26,3.29,15.38,15.38,0,0,1-5.43.95q-4.79,0-7.35-2.34a7.68,7.68,0,0,1-2.57-6,8.1,8.1,0,0,1,3.51-6.73,11.9,11.9,0,0,1,3.54-1.61,35,35,0,0,1,4.38-.74,45.09,45.09,0,0,0,8.77-1.69q0-1,0-1.29c0-2-.46-3.42-1.39-4.24a8.26,8.26,0,0,0-5.61-1.67,8.68,8.68,0,0,0-5.12,1.22,7.41,7.41,0,0,0-2.45,4.31l-4.81-.66a11.75,11.75,0,0,1,2.16-5,9.48,9.48,0,0,1,4.34-2.92,19.24,19.24,0,0,1,6.59-1,17.31,17.31,0,0,1,6.05.88,7.91,7.91,0,0,1,3.41,2.2,7.81,7.81,0,0,1,1.54,3.35,28.41,28.41,0,0,1,.24,4.54v6.56a69.14,69.14,0,0,0,.32,8.68,10.81,10.81,0,0,0,1.24,3.49H1601A10.56,10.56,0,0,1,1600,308.79Zm-.41-11a35.88,35.88,0,0,1-8,1.86,18.18,18.18,0,0,0-4.3,1,4.2,4.2,0,0,0-2.62,3.93,4.15,4.15,0,0,0,1.49,3.28,6.38,6.38,0,0,0,4.36,1.32,10.18,10.18,0,0,0,5.06-1.25,7.67,7.67,0,0,0,3.25-3.4,11.86,11.86,0,0,0,.79-4.92Z"/><path class="cls-3" d="M1612.09,312.38V272.29H1617v40.09Z"/><path class="cls-3" d="M1643.59,308.79a18.44,18.44,0,0,1-5.26,3.29,15.42,15.42,0,0,1-5.43.95q-4.79,0-7.36-2.34a7.71,7.71,0,0,1-2.57-6,8.07,8.07,0,0,1,3.52-6.73,11.9,11.9,0,0,1,3.54-1.61,34.47,34.47,0,0,1,4.37-.74,45.22,45.22,0,0,0,8.78-1.69q0-1,0-1.29c0-2-.47-3.42-1.4-4.24a8.22,8.22,0,0,0-5.6-1.67,8.69,8.69,0,0,0-5.13,1.22,7.47,7.47,0,0,0-2.45,4.31l-4.81-.66a12,12,0,0,1,2.16-5,9.46,9.46,0,0,1,4.35-2.92,19.2,19.2,0,0,1,6.59-1,17.25,17.25,0,0,1,6,.88,7.89,7.89,0,0,1,3.42,2.2,7.69,7.69,0,0,1,1.53,3.35,26.92,26.92,0,0,1,.25,4.54v6.56a69.94,69.94,0,0,0,.31,8.68,11.08,11.08,0,0,0,1.25,3.49h-5.14A10.34,10.34,0,0,1,1643.59,308.79Zm-.41-11a36.14,36.14,0,0,1-8,1.86,18.19,18.19,0,0,0-4.29,1,4.29,4.29,0,0,0-1.14,7.21,6.41,6.41,0,0,0,4.37,1.32,10.11,10.11,0,0,0,5.05-1.25,7.69,7.69,0,0,0,3.26-3.4,11.86,11.86,0,0,0,.79-4.92Z"/><path class="cls-3" d="M1655.79,312.38v-29h4.43v4.13a10.43,10.43,0,0,1,9.24-4.79,12.22,12.22,0,0,1,4.82.94,7.62,7.62,0,0,1,3.3,2.48,9.43,9.43,0,0,1,1.53,3.64,28.44,28.44,0,0,1,.27,4.78v17.86h-4.92V294.71a13.41,13.41,0,0,0-.57-4.5,4.8,4.8,0,0,0-2-2.38,6.49,6.49,0,0,0-3.43-.88,8,8,0,0,0-5.43,2q-2.28,2-2.28,7.58v15.86Z"/><path class="cls-3" d="M1705.88,301.74l4.84.63a12.54,12.54,0,0,1-4.06,7.83,11.81,11.81,0,0,1-8,2.83,12.48,12.48,0,0,1-9.58-3.89q-3.63-3.9-3.62-11.17a20.17,20.17,0,0,1,1.56-8.23,10.84,10.84,0,0,1,4.74-5.3,14.11,14.11,0,0,1,6.93-1.76,12.1,12.1,0,0,1,7.74,2.39,11,11,0,0,1,3.85,6.8l-4.78.74a8,8,0,0,0-2.42-4.41,6.29,6.29,0,0,0-4.2-1.47,7.65,7.65,0,0,0-6,2.66q-2.32,2.67-2.32,8.44c0,3.9.74,6.73,2.24,8.5a7.28,7.28,0,0,0,5.85,2.66,6.93,6.93,0,0,0,4.84-1.78A8.88,8.88,0,0,0,1705.88,301.74Z"/><path class="cls-3" d="M1734.81,303l5.09.63a12.46,12.46,0,0,1-4.46,6.92,13.4,13.4,0,0,1-8.31,2.46q-6.37,0-10.11-3.92t-3.73-11q0-7.32,3.77-11.37a12.78,12.78,0,0,1,9.79-4.05,12.39,12.39,0,0,1,9.52,4q3.69,4,3.69,11.15c0,.29,0,.73,0,1.31h-21.65c.18,3.19,1.08,5.64,2.7,7.33a8.06,8.06,0,0,0,6.07,2.55,7.5,7.5,0,0,0,4.62-1.43A9.39,9.39,0,0,0,1734.81,303Zm-16.16-7.95h16.21a9.69,9.69,0,0,0-1.86-5.5,7.54,7.54,0,0,0-6.09-2.84,7.79,7.79,0,0,0-5.7,2.27A9,9,0,0,0,1718.65,295.07Z"/><path class="cls-3" d="M1746,312.38v-29h4.43v4.4a11.88,11.88,0,0,1,3.13-4.07,5.45,5.45,0,0,1,3.16-1,9.6,9.6,0,0,1,5.06,1.59l-1.7,4.56a7,7,0,0,0-3.61-1.06,4.69,4.69,0,0,0-2.9,1,5.28,5.28,0,0,0-1.83,2.69,19.37,19.37,0,0,0-.82,5.74v15.21Z"/><line class="cls-1" x1="1490.58" y1="821.76" x2="1305.26" y2="821.76"/><rect class="cls-2" x="1490.58" y="715.55" width="319.88" height="212.42"/><path class="cls-3" d="M1522.31,843.7V803.61h15a18.64,18.64,0,0,1,7.37,1.22,9.48,9.48,0,0,1,4.34,3.74,9.89,9.89,0,0,1,1.58,5.3,9.12,9.12,0,0,1-1.4,4.84,10,10,0,0,1-4.21,3.66,10.43,10.43,0,0,1,5.59,3.64,9.74,9.74,0,0,1,2,6.07,11.74,11.74,0,0,1-1.19,5.23,10.17,10.17,0,0,1-2.94,3.73,12.27,12.27,0,0,1-4.39,2,27.07,27.07,0,0,1-6.47.67Zm5.3-23.24h8.67a19.3,19.3,0,0,0,5.06-.47,5.64,5.64,0,0,0,3.05-2,5.76,5.76,0,0,0,1-3.5,6.5,6.5,0,0,0-1-3.51,4.88,4.88,0,0,0-2.74-2.08,23,23,0,0,0-6.1-.56h-8Zm0,18.51h10a24,24,0,0,0,3.61-.19,8.68,8.68,0,0,0,3.06-1.1,5.8,5.8,0,0,0,2-2.23,6.93,6.93,0,0,0,.79-3.37,6.62,6.62,0,0,0-1.15-3.9,6,6,0,0,0-3.18-2.32,19.69,19.69,0,0,0-5.87-.67h-9.27Z"/><path class="cls-3" d="M1578.2,840.12a18.29,18.29,0,0,1-5.27,3.28,15.33,15.33,0,0,1-5.42,1c-3.19,0-5.65-.78-7.36-2.33a7.73,7.73,0,0,1-2.57-6,7.94,7.94,0,0,1,1-3.9,8.27,8.27,0,0,1,2.54-2.83,12.1,12.1,0,0,1,3.55-1.61A36.4,36.4,0,0,1,1569,827a45.38,45.38,0,0,0,8.78-1.69c0-.68,0-1.1,0-1.29,0-2-.47-3.42-1.4-4.24a8.25,8.25,0,0,0-5.6-1.66,8.7,8.7,0,0,0-5.13,1.21,7.41,7.41,0,0,0-2.45,4.31l-4.81-.66a12,12,0,0,1,2.16-5,9.46,9.46,0,0,1,4.35-2.92,19.2,19.2,0,0,1,6.59-1,17.29,17.29,0,0,1,6,.88,7.89,7.89,0,0,1,3.42,2.2,7.69,7.69,0,0,1,1.53,3.35,28.41,28.41,0,0,1,.24,4.54v6.56a69,69,0,0,0,.32,8.68,11,11,0,0,0,1.24,3.49h-5.14A10.34,10.34,0,0,1,1578.2,840.12Zm-.41-11a36.14,36.14,0,0,1-8,1.86,18.06,18.06,0,0,0-4.29,1,4.3,4.3,0,0,0-2,1.6,4.36,4.36,0,0,0,.81,5.62,6.43,6.43,0,0,0,4.36,1.31,10.15,10.15,0,0,0,5.06-1.25,7.69,7.69,0,0,0,3.26-3.4,12,12,0,0,0,.79-4.92Z"/><path class="cls-3" d="M1609.34,833.06l4.84.63a12.51,12.51,0,0,1-4.06,7.83,11.81,11.81,0,0,1-8,2.83,12.5,12.5,0,0,1-9.59-3.89q-3.62-3.9-3.62-11.17a20.17,20.17,0,0,1,1.56-8.23,10.86,10.86,0,0,1,4.74-5.29,14.07,14.07,0,0,1,6.93-1.77,12.06,12.06,0,0,1,7.74,2.39,11,11,0,0,1,3.86,6.8l-4.79.74a7.88,7.88,0,0,0-2.42-4.4,6.22,6.22,0,0,0-4.19-1.48,7.67,7.67,0,0,0-6,2.66q-2.32,2.67-2.32,8.44c0,3.9.75,6.74,2.24,8.5a7.3,7.3,0,0,0,5.85,2.66,6.92,6.92,0,0,0,4.84-1.78A8.77,8.77,0,0,0,1609.34,833.06Z"/><path class="cls-3" d="M1618.42,843.7V803.61h4.92v22.86L1635,814.66h6.37l-11.1,10.77,12.22,18.27h-6.07l-9.59-14.85-3.48,3.34V843.7Z"/><path class="cls-3" d="M1666.27,834.35l5.09.62a12.37,12.37,0,0,1-4.46,6.92,13.4,13.4,0,0,1-8.31,2.46q-6.37,0-10.1-3.92c-2.49-2.62-3.74-6.28-3.74-11s1.26-8.67,3.78-11.37a12.75,12.75,0,0,1,9.79-4,12.39,12.39,0,0,1,9.51,4q3.69,4,3.69,11.15c0,.3,0,.73,0,1.32h-21.66q.27,4.78,2.71,7.32a8,8,0,0,0,6.07,2.55,7.54,7.54,0,0,0,4.62-1.43A9.46,9.46,0,0,0,1666.27,834.35Zm-16.16-8h16.22a9.87,9.87,0,0,0-1.86-5.5,7.56,7.56,0,0,0-6.1-2.84,7.83,7.83,0,0,0-5.7,2.27A9,9,0,0,0,1650.11,826.39Z"/><path class="cls-3" d="M1677.54,843.7v-29H1682v4.13a10.43,10.43,0,0,1,9.24-4.79,12.14,12.14,0,0,1,4.83,1,7.56,7.56,0,0,1,3.29,2.47,9.43,9.43,0,0,1,1.53,3.64,28.14,28.14,0,0,1,.28,4.78V843.7h-4.93V826a13.3,13.3,0,0,0-.57-4.49,4.67,4.67,0,0,0-2-2.38,6.4,6.4,0,0,0-3.43-.89,8,8,0,0,0-5.43,2q-2.28,2-2.28,7.58V843.7Z"/><path class="cls-3" d="M1727.52,843.7V840a9,9,0,0,1-8.12,4.32,11.35,11.35,0,0,1-6.38-1.91,12.66,12.66,0,0,1-4.52-5.35,18.51,18.51,0,0,1-1.59-7.88,20.76,20.76,0,0,1,1.44-7.89,11.38,11.38,0,0,1,10.83-7.32,9.69,9.69,0,0,1,8,4V803.61h4.9V843.7ZM1712,829.21q0,5.56,2.36,8.33a7.05,7.05,0,0,0,5.55,2.77,7,7,0,0,0,5.48-2.64c1.5-1.76,2.25-4.45,2.25-8q0-6-2.29-8.75a7.06,7.06,0,0,0-5.66-2.79,6.79,6.79,0,0,0-5.48,2.68Q1712,823.43,1712,829.21Z"/><path class="cls-3" d="M1779.89,839v4.73h-26.5a8.61,8.61,0,0,1,.57-3.42,18.24,18.24,0,0,1,3.24-5.33,51.09,51.09,0,0,1,6.44-6.07q6.54-5.37,8.84-8.49a10.17,10.17,0,0,0,2.29-5.92,6.57,6.57,0,0,0-2.09-4.94,7.53,7.53,0,0,0-5.45-2,7.7,7.7,0,0,0-5.69,2.13,8.1,8.1,0,0,0-2.16,5.91l-5.06-.52q.53-5.65,3.91-8.63t9.1-3q5.78,0,9.14,3.2a10.49,10.49,0,0,1,3.36,7.93,12.15,12.15,0,0,1-1,4.73,18.44,18.44,0,0,1-3.27,4.89,78.11,78.11,0,0,1-7.59,7.06q-4.42,3.72-5.69,5a15.66,15.66,0,0,0-2.07,2.67Z"/><path class="cls-3" d="M1402,242.38h-2.2v-14a11.33,11.33,0,0,1-2.08,1.51,15.24,15.24,0,0,1-2.31,1.14V228.9a13.36,13.36,0,0,0,3.22-2.1,8.2,8.2,0,0,0,2-2.39H1402Z"/><path class="cls-3" d="M1407.59,233.55a16.59,16.59,0,0,1,.65-5.11,6.36,6.36,0,0,1,1.94-3,5,5,0,0,1,3.24-1.05,5.25,5.25,0,0,1,2.53.58,4.84,4.84,0,0,1,1.79,1.67,8.88,8.88,0,0,1,1.12,2.66,18.21,18.21,0,0,1,.4,4.23,16.49,16.49,0,0,1-.65,5.09,6.36,6.36,0,0,1-1.93,3,5,5,0,0,1-3.26,1.05,4.89,4.89,0,0,1-4.06-1.85Q1407.59,238.6,1407.59,233.55Zm2.26,0q0,4.41,1,5.87a2.94,2.94,0,0,0,5.09,0c.69-1,1-2.93,1-5.86s-.34-4.9-1-5.87a3.07,3.07,0,0,0-2.57-1.45,2.83,2.83,0,0,0-2.42,1.28C1410.22,228.6,1409.85,230.62,1409.85,233.55Z"/><path class="cls-3" d="M1422.72,242.38v-2.5h2.51v2.5Z"/><path class="cls-3" d="M1428.44,233.55a16.59,16.59,0,0,1,.65-5.11,6.36,6.36,0,0,1,1.94-3,5,5,0,0,1,3.24-1.05,5.25,5.25,0,0,1,2.53.58,4.84,4.84,0,0,1,1.79,1.67,8.88,8.88,0,0,1,1.12,2.66,18.21,18.21,0,0,1,.4,4.23,16.49,16.49,0,0,1-.65,5.09,6.43,6.43,0,0,1-1.93,3,5,5,0,0,1-3.26,1.05,4.89,4.89,0,0,1-4.06-1.85Q1428.44,238.6,1428.44,233.55Zm2.26,0q0,4.41,1,5.87a2.94,2.94,0,0,0,5.09,0c.69-1,1-2.93,1-5.86s-.34-4.9-1-5.87a3.07,3.07,0,0,0-2.57-1.45,2.83,2.83,0,0,0-2.42,1.28C1431.07,228.6,1430.7,230.62,1430.7,233.55Z"/><path class="cls-3" d="M1443.57,242.38v-2.5h2.51v2.5Z"/><path class="cls-3" d="M1449.29,233.55a16.29,16.29,0,0,1,.65-5.11,6.36,6.36,0,0,1,1.94-3,5,5,0,0,1,3.24-1.05,5.28,5.28,0,0,1,2.53.58,4.84,4.84,0,0,1,1.79,1.67,8.63,8.63,0,0,1,1.11,2.66,17.6,17.6,0,0,1,.41,4.23,16.49,16.49,0,0,1-.65,5.09,6.43,6.43,0,0,1-1.93,3,5,5,0,0,1-3.26,1.05,4.89,4.89,0,0,1-4.06-1.85Q1449.29,238.6,1449.29,233.55Zm2.26,0q0,4.41,1,5.87a2.94,2.94,0,0,0,5.09,0c.69-1,1-2.93,1-5.86s-.34-4.9-1-5.87a3.07,3.07,0,0,0-2.57-1.45,2.83,2.83,0,0,0-2.42,1.28C1451.92,228.6,1451.55,230.62,1451.55,233.55Z"/><path class="cls-3" d="M1464.42,242.38v-2.5h2.51v2.5Z"/><path class="cls-3" d="M1481.68,240.27v2.11h-11.82a3.79,3.79,0,0,1,.25-1.53,8.19,8.19,0,0,1,1.45-2.38,23,23,0,0,1,2.87-2.71,24.41,24.41,0,0,0,4-3.79,4.54,4.54,0,0,0,1-2.64,2.92,2.92,0,0,0-.93-2.2,3.37,3.37,0,0,0-2.44-.9,3.46,3.46,0,0,0-2.54,1,3.63,3.63,0,0,0-1,2.64l-2.26-.23a5.61,5.61,0,0,1,1.75-3.86,6,6,0,0,1,4.06-1.32,5.68,5.68,0,0,1,4.08,1.43,4.68,4.68,0,0,1,1.5,3.54,5.43,5.43,0,0,1-.44,2.11,8.05,8.05,0,0,1-1.46,2.18,35.12,35.12,0,0,1-3.38,3.15c-1.32,1.11-2.17,1.86-2.54,2.26a6.54,6.54,0,0,0-.93,1.19Z"/><path class="cls-3" d="M1343.67,293.1l-3.44-17.89h2.31l2.07,10.67c.39,1.93.63,3.5.75,4.68.75-1.52,1.36-2.74,1.84-3.63l6.38-11.72h2.47l-9.81,17.89Z"/><path class="cls-3" d="M1355.23,293.1l3.75-17.89h2.38l-3.73,17.89Z"/><path class="cls-3" d="M1361.83,293.1l3.74-17.89H1373a7.48,7.48,0,0,1,2.92.44,3.66,3.66,0,0,1,1.6,1.53,4.72,4.72,0,0,1,.63,2.42,6.15,6.15,0,0,1-.45,2.26,5.8,5.8,0,0,1-1.14,1.89,5.43,5.43,0,0,1-1.4,1.13,5.94,5.94,0,0,1-1.51.56,15.17,15.17,0,0,1-3.48.4h-4.48l-1.51,7.26Zm4.33-9.29h3.94a8.57,8.57,0,0,0,3.37-.49,4.13,4.13,0,0,0,2.37-3.66,2.78,2.78,0,0,0-.34-1.43,2.06,2.06,0,0,0-1-.82,7.27,7.27,0,0,0-2.39-.26h-4.59Z"/><path class="cls-3" d="M1378.85,293.1l.53-2.5h2.5l-.54,2.5Zm2.19-10.46.52-2.5h2.49l-.51,2.5Z"/><path class="cls-3" d="M1397.33,293.1l2.84-13.51a14.13,14.13,0,0,1-5.15,2.31l.41-2a17.94,17.94,0,0,0,3.25-1.73,15.63,15.63,0,0,0,2.41-1.85,6.74,6.74,0,0,0,.93-1.18h1.28l-3.74,18Z"/><path class="cls-3" d="M1407,287.23a16.61,16.61,0,0,1,.68-4.61,16.23,16.23,0,0,1,1.51-3.75,9.1,9.1,0,0,1,1.72-2.2,6.63,6.63,0,0,1,1.75-1.16,4.72,4.72,0,0,1,1.91-.37,4.38,4.38,0,0,1,3.42,1.52,6.37,6.37,0,0,1,1.38,4.41,18.6,18.6,0,0,1-1,5.87,11.15,11.15,0,0,1-3.12,5.16,5.27,5.27,0,0,1-3.5,1.31,4.35,4.35,0,0,1-3.4-1.58A6.76,6.76,0,0,1,1407,287.23Zm2.14.56a5,5,0,0,0,.55,2.58,2.4,2.4,0,0,0,2.21,1.28,3.08,3.08,0,0,0,2.33-1.16,10.55,10.55,0,0,0,2.27-4.79,22.88,22.88,0,0,0,.77-5.16,4.24,4.24,0,0,0-.74-2.78,2.44,2.44,0,0,0-2-.85,3.19,3.19,0,0,0-1.64.45,4.49,4.49,0,0,0-1.46,1.55,15.58,15.58,0,0,0-1.72,4.64A19,19,0,0,0,1409.13,287.79Z"/><path class="cls-3" d="M1420.57,293.1l.52-2.5h2.5l-.53,2.5Z"/><path class="cls-3" d="M1427.84,287.23a16.61,16.61,0,0,1,.68-4.61,16.23,16.23,0,0,1,1.51-3.75,9.1,9.1,0,0,1,1.72-2.2,6.47,6.47,0,0,1,1.75-1.16,4.72,4.72,0,0,1,1.91-.37,4.38,4.38,0,0,1,3.42,1.52,6.37,6.37,0,0,1,1.38,4.41,18.6,18.6,0,0,1-1,5.87,11.23,11.23,0,0,1-3.12,5.16,5.27,5.27,0,0,1-3.5,1.31,4.35,4.35,0,0,1-3.4-1.58A6.76,6.76,0,0,1,1427.84,287.23Zm2.14.56a5,5,0,0,0,.55,2.58,2.4,2.4,0,0,0,2.21,1.28,3.08,3.08,0,0,0,2.33-1.16,10.66,10.66,0,0,0,2.27-4.79,22.88,22.88,0,0,0,.77-5.16,4.24,4.24,0,0,0-.74-2.78,2.44,2.44,0,0,0-1.95-.85,3.16,3.16,0,0,0-1.64.45,4.49,4.49,0,0,0-1.46,1.55,15.58,15.58,0,0,0-1.72,4.64A19,19,0,0,0,1430,287.79Z"/><path class="cls-3" d="M1441.42,293.1l.52-2.5h2.5l-.53,2.5Z"/><path class="cls-3" d="M1452.94,293.1l2.83-13.51a14.13,14.13,0,0,1-5.15,2.31l.41-2a18,18,0,0,0,3.26-1.73,16.14,16.14,0,0,0,2.41-1.85,7.83,7.83,0,0,0,.93-1.18h1.28l-3.75,18Z"/><path class="cls-3" d="M1462.26,293.1l.53-2.5h2.5l-.54,2.5Z"/><path class="cls-3" d="M1473.79,293.1l2.83-13.51a14.13,14.13,0,0,1-5.15,2.31l.41-2a18,18,0,0,0,3.26-1.73,16.14,16.14,0,0,0,2.41-1.85,7.83,7.83,0,0,0,.93-1.18h1.28l-3.75,18Z"/><path class="cls-3" d="M1399,524.92h-2.2v-14a11.33,11.33,0,0,1-2.08,1.52,15.09,15.09,0,0,1-2.31,1.13v-2.12a13.36,13.36,0,0,0,3.22-2.1,8.2,8.2,0,0,0,1.95-2.39H1399Z"/><path class="cls-3" d="M1404.64,516.1a16.24,16.24,0,0,1,.65-5.11,6.37,6.37,0,0,1,1.94-3,5,5,0,0,1,3.24-1,5.28,5.28,0,0,1,2.53.58,4.76,4.76,0,0,1,1.79,1.67,9,9,0,0,1,1.11,2.66,17.49,17.49,0,0,1,.41,4.23,16.42,16.42,0,0,1-.65,5.08,6.32,6.32,0,0,1-1.94,3,5.42,5.42,0,0,1-7.31-.8Q1404.64,521.14,1404.64,516.1Zm2.25,0q0,4.41,1,5.86a3,3,0,0,0,2.54,1.46A3.06,3.06,0,0,0,1413,522c.68-1,1-2.93,1-5.86s-.35-4.9-1-5.87a3.08,3.08,0,0,0-2.57-1.46,2.81,2.81,0,0,0-2.42,1.29Q1406.89,511.69,1406.89,516.1Z"/><path class="cls-3" d="M1419.77,524.92v-2.5h2.51v2.5Z"/><path class="cls-3" d="M1425.49,516.1a16.24,16.24,0,0,1,.65-5.11,6.37,6.37,0,0,1,1.94-3,5,5,0,0,1,3.24-1,5.28,5.28,0,0,1,2.53.58,4.76,4.76,0,0,1,1.79,1.67,9,9,0,0,1,1.11,2.66,17.49,17.49,0,0,1,.41,4.23,16.42,16.42,0,0,1-.65,5.08,6.32,6.32,0,0,1-1.94,3,5.42,5.42,0,0,1-7.31-.8Q1425.49,521.14,1425.49,516.1Zm2.25,0q0,4.41,1,5.86a3,3,0,0,0,2.54,1.46,3.06,3.06,0,0,0,2.55-1.46c.68-1,1-2.93,1-5.86s-.35-4.9-1-5.87a3.08,3.08,0,0,0-2.57-1.46,2.81,2.81,0,0,0-2.42,1.29Q1427.74,511.69,1427.74,516.1Z"/><path class="cls-3" d="M1440.62,524.92v-2.5h2.5v2.5Z"/><path class="cls-3" d="M1457.88,522.81v2.11h-11.83a4,4,0,0,1,.26-1.52,7.85,7.85,0,0,1,1.45-2.38,22.28,22.28,0,0,1,2.87-2.71,24.85,24.85,0,0,0,3.95-3.79,4.57,4.57,0,0,0,1-2.65,2.94,2.94,0,0,0-.93-2.2,3.39,3.39,0,0,0-2.44-.9,3.42,3.42,0,0,0-2.54,1,3.61,3.61,0,0,0-1,2.63l-2.26-.23a5.57,5.57,0,0,1,1.74-3.85,6,6,0,0,1,4.07-1.32,5.68,5.68,0,0,1,4.08,1.42,4.72,4.72,0,0,1,1.5,3.54,5.48,5.48,0,0,1-.44,2.12,8.05,8.05,0,0,1-1.46,2.18,34.31,34.31,0,0,1-3.39,3.15c-1.32,1.11-2.16,1.86-2.54,2.25a7.34,7.34,0,0,0-.92,1.19Z"/><path class="cls-3" d="M1461.47,524.92v-2.5h2.5v2.5Z"/><path class="cls-3" d="M1475.46,524.92h-2.2v-14a11.33,11.33,0,0,1-2.08,1.52,15.09,15.09,0,0,1-2.31,1.13v-2.12a13.36,13.36,0,0,0,3.22-2.1,8.2,8.2,0,0,0,2-2.39h1.42Z"/><path class="cls-3" d="M1402.68,807.09h-2.19v-14a11.43,11.43,0,0,1-2.09,1.51,14,14,0,0,1-2.31,1.14v-2.13a12.79,12.79,0,0,0,3.22-2.1,8.42,8.42,0,0,0,2-2.39h1.41Z"/><path class="cls-3" d="M1408.31,798.26a16.52,16.52,0,0,1,.65-5.1,6.47,6.47,0,0,1,1.94-3,5,5,0,0,1,3.25-1,5.21,5.21,0,0,1,2.52.58,4.87,4.87,0,0,1,1.8,1.67,9.14,9.14,0,0,1,1.11,2.66,17.68,17.68,0,0,1,.4,4.23,16.49,16.49,0,0,1-.65,5.09,6.36,6.36,0,0,1-1.93,3,5,5,0,0,1-3.25,1,4.9,4.9,0,0,1-4.07-1.85Q1408.31,803.31,1408.31,798.26Zm2.26,0q0,4.41,1,5.87a2.94,2.94,0,0,0,5.09,0c.69-1,1-2.93,1-5.86s-.34-4.9-1-5.87a3.05,3.05,0,0,0-2.57-1.45,2.84,2.84,0,0,0-2.42,1.28C1411,793.31,1410.57,795.33,1410.57,798.26Z"/><path class="cls-3" d="M1423.45,807.09v-2.5h2.5v2.5Z"/><path class="cls-3" d="M1429.16,798.26a16.52,16.52,0,0,1,.65-5.1,6.47,6.47,0,0,1,1.94-3,5,5,0,0,1,3.25-1,5.21,5.21,0,0,1,2.52.58,4.87,4.87,0,0,1,1.8,1.67,9.14,9.14,0,0,1,1.11,2.66,17.68,17.68,0,0,1,.4,4.23,16.49,16.49,0,0,1-.65,5.09,6.36,6.36,0,0,1-1.93,3,5,5,0,0,1-3.25,1,4.9,4.9,0,0,1-4.07-1.85Q1429.16,803.31,1429.16,798.26Zm2.26,0q0,4.41,1,5.87a2.94,2.94,0,0,0,5.09,0c.69-1,1-2.93,1-5.86s-.34-4.9-1-5.87a3.05,3.05,0,0,0-2.57-1.45,2.84,2.84,0,0,0-2.42,1.28C1431.8,793.31,1431.42,795.33,1431.42,798.26Z"/><path class="cls-3" d="M1444.3,807.09v-2.5h2.5v2.5Z"/><path class="cls-3" d="M1461.56,805v2.11h-11.83a3.8,3.8,0,0,1,.26-1.53,8.14,8.14,0,0,1,1.44-2.38,22.49,22.49,0,0,1,2.88-2.71,23.82,23.82,0,0,0,3.94-3.79,4.54,4.54,0,0,0,1-2.64,2.94,2.94,0,0,0-.93-2.2,3.35,3.35,0,0,0-2.43-.9,3.44,3.44,0,0,0-2.54.95,3.61,3.61,0,0,0-1,2.64l-2.26-.23a5.56,5.56,0,0,1,1.75-3.85,5.91,5.91,0,0,1,4.06-1.33,5.68,5.68,0,0,1,4.08,1.43,4.68,4.68,0,0,1,1.5,3.54,5.22,5.22,0,0,1-.44,2.11,8.24,8.24,0,0,1-1.46,2.19,35.25,35.25,0,0,1-3.38,3.15,33.8,33.8,0,0,0-2.54,2.25,6.54,6.54,0,0,0-.93,1.19Z"/><path class="cls-3" d="M1465.15,807.09v-2.5h2.5v2.5Z"/><path class="cls-3" d="M1479.14,807.09h-2.2v-14a11.33,11.33,0,0,1-2.08,1.51,14,14,0,0,1-2.32,1.14v-2.13a12.85,12.85,0,0,0,3.23-2.1,8.2,8.2,0,0,0,2-2.39h1.42Z"/></svg>